<?xml version="1.0" encoding="UTF-8" standalone="no"?>
<svg><g transform="scale(1,-1)">
  <path d="M1757 128l35 -313q3 -28 -16 -50q-19 -21 -48 -21h-1664q-29 0 -48 21q-19 22 -16 50l35 313h1722zM1664 967l86 -775h-1708l86 775q3 24 21 40.5t43 16.5h256v-128q0 -53 37.5 -90.5t90.5 -37.5t90.5 37.5t37.5 90.5v128h384v-128q0 -53 37.5 -90.5t90.5 -37.5
t90.5 37.5t37.5 90.5v128h256q25 0 43 -16.5t21 -40.5zM1280 1152v-256q0 -26 -19 -45t-45 -19t-45 19t-19 45v256q0 106 -75 181t-181 75t-181 -75t-75 -181v-256q0 -26 -19 -45t-45 -19t-45 19t-19 45v256q0 159 112.5 271.5t271.5 112.5t271.5 -112.5t112.5 -271.5z"/>
</g></svg>