<?xml version="1.0" encoding="UTF-8" standalone="no"?>
<svg><g transform="scale(1,-1)">
  <path d="M2048 1152h-128v-1024h128v-384h-384v128h-1280v-128h-384v384h128v1024h-128v384h384v-128h1280v128h384v-384zM1792 1408v-128h128v128h-128zM128 1408v-128h128v128h-128zM256 -128v128h-128v-128h128zM1664 0v128h128v1024h-128v128h-1280v-128h-128v-1024h128v-128
h1280zM1920 -128v128h-128v-128h128zM1280 896h384v-768h-896v256h-384v768h896v-256zM512 512h640v512h-640v-512zM1536 256v512h-256v-384h-384v-128h640z"/>
</g></svg>