<?xml version="1.0" encoding="UTF-8" standalone="no"?>
<svg><g transform="scale(1,-1)">
  <path d="M1792 192v-128q0 -26 -19 -45t-45 -19h-1664q-26 0 -45 19t-19 45v128q0 26 19 45t45 19h1664q26 0 45 -19t19 -45zM1408 576v-128q0 -26 -19 -45t-45 -19h-896q-26 0 -45 19t-19 45v128q0 26 19 45t45 19h896q26 0 45 -19t19 -45zM1664 960v-128q0 -26 -19 -45t-45 -19
h-1408q-26 0 -45 19t-19 45v128q0 26 19 45t45 19h1408q26 0 45 -19t19 -45zM1280 1344v-128q0 -26 -19 -45t-45 -19h-640q-26 0 -45 19t-19 45v128q0 26 19 45t45 19h640q26 0 45 -19t19 -45z"/>
</g></svg>