<?xml version="1.0" encoding="UTF-8" standalone="no"?>
<svg><g transform="scale(1,-1)">
  <path d="M768 512v-384q0 -52 -38 -90t-90 -38h-512q-52 0 -90 38t-38 90v384q0 52 38 90t90 38h512q52 0 90 -38t38 -90zM768 1280v-384q0 -52 -38 -90t-90 -38h-512q-52 0 -90 38t-38 90v384q0 52 38 90t90 38h512q52 0 90 -38t38 -90zM1664 512v-384q0 -52 -38 -90t-90 -38
h-512q-52 0 -90 38t-38 90v384q0 52 38 90t90 38h512q52 0 90 -38t38 -90zM1664 1280v-384q0 -52 -38 -90t-90 -38h-512q-52 0 -90 38t-38 90v384q0 52 38 90t90 38h512q52 0 90 -38t38 -90z"/>
</g></svg>